<?xml version="1.0" encoding="utf-8"?>
<!DOCTYPE svg PUBLIC "-//W3C//DTD SVG 1.1//EN" "http://www.w3.org/Graphics/SVG/1.1/DTD/svg11.dtd">
<svg
  xmlns="http://www.w3.org/2000/svg" 
  xmlns:xlink="http://www.w3.org/1999/xlink"
  xml:space="preserve"
  width="100"
  height="100"
  viewBox="0 0 100 100"
  class="css-1j8o68f"
  version="1.1" 
>
  <defs id="SvgjsDefs1617"></defs>
  <g
    id="SvgjsG1958"
    featurekey="symbolFeature-0"
    transform="matrix(1.07621206430519,0,0,1.07621206430519,-5.677333936788382,-1.668244912402627)"
    fill="#f85f73"
  >
    <path xmlns="http://www.w3.org/2000/svg" d="M47.75,35.727"></path>
    <path xmlns="http://www.w3.org/2000/svg" d="M51.695,46.335"></path>
    <path
      xmlns="http://www.w3.org/2000/svg"
      d="M57.662,49.951l-38.6,38.602c-1.109,1.093-8.695-6.504-7.601-7.606l38.597-38.594L57.662,49.951z"
    ></path>
    <rect
      xmlns="http://www.w3.org/2000/svg"
      x="52.087"
      y="23.201"
      transform="matrix(-0.7071 0.7071 -0.7071 -0.7071 133.6374 18.7506)"
      width="21.696"
      height="27.703"
    ></rect>    
  </g>
  <g
    id="SvgjsG1618"
    featurekey="UqkkrJ-0"
    transform="matrix(0.35995533776949,0,0,0.35995533776949,62.07766888474496,0.747766888474496)"
    fill="#f73859"
  >
    <path
      xmlns="http://www.w3.org/2000/svg"
      fill="#f73859"
      d="M50,10.584c-21.734,0-39.416,17.682-39.416,39.416c0,21.734,17.682,39.416,39.416,39.416  c21.734,0,39.416-17.682,39.416-39.416C89.416,28.266,71.734,10.584,50,10.584z M86.22,59.02L71.13,74.537  c-0.011-0.953-0.062-1.892-0.144-2.796L86.94,55.335C86.761,56.584,86.521,57.813,86.22,59.02z M62.11,41.161  c0.957-0.153,2.288-0.556,2.692-1.735c0.228-0.665,0.07-1.31-0.198-1.842c2.776-1.196,4.535-3.196,4.934-3.679  c0.47-0.41,0.672-1.006,0.693-1.7l7.3-7.382c0.549,0.599,1.074,1.221,1.583,1.856L62.468,43.553  C62.011,42.827,62.029,41.82,62.11,41.161z M68.742,27.286c2.607-1.792,3.781-4.754,4.288-6.629c1.062,0.835,2.08,1.725,3.046,2.668  l-6.306,6.377C69.489,28.866,69.114,28.027,68.742,27.286z M63.507,45.472l16.881-17.11c0.42,0.588,0.824,1.189,1.211,1.802  L62.495,49.689C63.029,47.687,63.384,46.058,63.507,45.472z M61.189,54.011L82.7,32.022c0.458,0.828,0.878,1.678,1.272,2.542  L58.966,60.279c-0.178-0.216-0.319-0.417-0.422-0.583C59.543,58.312,60.438,56.197,61.189,54.011z M84.852,36.656  c0.356,0.926,0.676,1.869,0.958,2.828L63.24,62.69c-1.12-0.233-1.999-0.615-2.69-1.045L84.852,36.656z M86.42,41.85  c0.266,1.183,0.473,2.386,0.621,3.607L69.47,63.526c-0.011-0.035-0.019-0.064-0.023-0.08c-0.15-0.498-0.639-0.808-1.158-0.73  c-0.856,0.132-1.639,0.195-2.361,0.207L86.42,41.85z M87.328,50c0,0.67-0.02,1.336-0.056,1.998L70.665,69.076  c-0.184-1.207-0.397-2.287-0.594-3.173l17.211-17.698C87.311,48.8,87.328,49.398,87.328,50z M49.022,23.094L44.018,20.5  c-0.027-0.509-0.036-1.05-0.022-1.628c0-0.045-0.007-0.338-0.105-0.769l6.984,3.428C50.263,21.974,49.635,22.493,49.022,23.094z   M47.595,24.706c-0.517,0.68-0.995,1.434-1.405,2.271c-0.609-0.678-1.389-1.908-1.837-3.952L47.595,24.706z M41.267,14.489  c-0.279-0.188-0.578-0.372-0.917-0.544c1.089-0.292,2.198-0.532,3.324-0.725l10.731,5.268c-0.026,0.36-0.051,0.724-0.068,1.089  c-0.363,0.151-0.853,0.375-1.412,0.673l0.015-0.03L41.267,14.489z M55.056,13.024c-0.126,0.781-0.295,1.926-0.442,3.239  l-7.124-3.497c0.831-0.056,1.666-0.094,2.511-0.094C51.715,12.672,53.401,12.799,55.056,13.024z M32.652,82.037h4.575  c-0.374,0.753-0.72,1.62-1.007,2.644c-1.203-0.48-2.376-1.019-3.515-1.617C32.694,82.778,32.676,82.431,32.652,82.037z   M38.553,79.948h-6.069c-0.069-0.668-0.156-1.357-0.266-2.018h8.742C40.346,78.244,39.45,78.854,38.553,79.948z M44.238,75.842  H31.735c-0.049-0.151-0.101-0.299-0.156-0.434l-0.109-0.202c-0.042-0.062-0.452-0.648-1.101-1.518h14.585  C44.928,73.886,44.778,74.892,44.238,75.842z M45.338,71.601H28.75c-0.533-0.662-1.115-1.362-1.729-2.06h17.613  c0.446,0.256,0.924,0.499,1.442,0.721C45.802,70.627,45.541,71.076,45.338,71.601z M25.91,67.452  c0.013-0.054,0.021-0.109,0.043-0.159c0.055-0.119,0.172-0.294,0.552-0.421l0.17-0.056l0.142-0.11  c0.289-0.226,0.592-0.679,0.577-1.277c-0.003-0.111-0.038-0.221-0.061-0.329h12.701c0.22,0.382,0.813,1.313,1.861,2.353H25.91z   M25.624,63.011c-0.372-0.336-1.058-0.94-1.942-1.649h2.708c1.177,0.407,2.544,0.281,4.03-0.37c0.21-0.072,4.57-1.535,8.052,2.02  H25.624z M20.833,59.272c-0.891-0.586-1.831-1.136-2.764-1.572h5.297v-0.489l0.009,0.304c0.001,0.055,0.008,0.108,0.018,0.162  c0.01,0.055,0.165,0.782,0.617,1.596H20.833z M14.963,55.612c-0.488-0.58-0.98-1.346-1.399-2.346h5.21  c-0.1,0.647-0.078,1.375,0.269,2.057c0.055,0.107,0.14,0.191,0.206,0.289H14.963z M19.584,51.179h-6.677  c-0.089-0.395-0.169-0.809-0.232-1.254c0.001-0.481,0.017-0.96,0.036-1.438h15.018c-0.169,0.447-0.331,0.903-0.474,1.379  c-0.788-0.62-1.869-1.21-3.147-1.239C22.486,48.601,20.955,49.454,19.584,51.179z M28.664,46.398H12.849  c0.074-0.764,0.17-1.521,0.289-2.271h16.885C29.536,44.827,29.082,45.587,28.664,46.398z M31.687,42.039h-18.15  c0.134-0.615,0.283-1.224,0.447-1.827h19.585C32.933,40.758,32.3,41.364,31.687,42.039z M36.41,38.123h-21.79  c0.193-0.572,0.398-1.138,0.618-1.697h24.418C38.805,36.786,37.668,37.337,36.41,38.123z M16.129,34.338  c0.381-0.821,0.789-1.628,1.227-2.416h20.435c0.218,0.771,0.513,1.576,0.916,2.416H16.129z M18.613,29.834  c0.384-0.595,0.782-1.18,1.198-1.75h17.485c-0.017,0.544,0.007,1.132,0.078,1.75H18.613z M35.955,22.069h-10.68  c0.527-0.467,1.069-0.917,1.622-1.355h7.877C35.135,21.15,35.528,21.603,35.955,22.069z M29.814,18.626  c0.78-0.503,1.575-0.988,2.394-1.434c0.239,0.381,0.557,0.867,0.959,1.434H29.814z M23.103,24.158h14.923  c0.027,0.025,0.052,0.05,0.079,0.075c-0.18,0.431-0.388,1.028-0.549,1.763h-16.11C21.977,25.363,22.531,24.752,23.103,24.158z   M13.323,56.904c0.233,0.281,0.466,0.527,0.695,0.749V57.7h0.051c1.249,1.189,2.353,1.566,2.419,1.586  c3.589,1.387,7.97,5.487,8.014,5.528l0.117,0.096c0.198,0.139,0.342,0.257,0.445,0.354c-0.542,0.354-0.843,0.799-1.008,1.158  c-0.599,1.301-0.044,2.74,0.021,2.899l0.075,0.185l0.138,0.144c2.558,2.673,4.964,6.037,5.397,6.649  c0.476,1.265,0.736,3.672,0.862,5.546C21.713,76.429,15.302,67.439,13.323,56.904z M38.187,85.4c1.259-4.69,3.722-5.647,4.034-5.752  c4.255-0.679,4.795-5.581,4.821-5.895c0-2.045,1.447-2.989,1.5-3.023c0.354-0.215,0.547-0.62,0.492-1.03  c-0.055-0.411-0.348-0.751-0.746-0.865c-4.604-1.325-6.478-4.835-6.529-4.93c-4.476-7.431-11.954-4.909-12.102-4.856  c-1.188,0.519-2.149,0.596-2.854,0.227c-0.93-0.483-1.272-1.644-1.343-1.924l-0.084-2.771c-0.012-0.389-0.238-0.738-0.588-0.907  c-0.348-0.169-0.764-0.132-1.076,0.099l-1.657,1.226c-0.479-0.09-0.967-0.266-1.147-0.616c-0.269-0.521,0.069-1.462,0.296-1.889  c0.944-1.196,1.903-1.799,2.849-1.777c1.618,0.03,2.898,1.787,2.909,1.801c0.239,0.339,0.654,0.506,1.065,0.419  c0.407-0.085,0.725-0.402,0.809-0.81C31.11,41.158,41.663,37.894,41.77,37.862c0.327-0.098,0.586-0.349,0.694-0.674  c0.107-0.324,0.049-0.681-0.156-0.954c-4.955-6.607-2.15-11.507-2.032-11.707c0.263-0.432,0.179-0.99-0.199-1.325  c-3.118-2.765-5.095-5.55-5.994-6.958c0.962-0.455,1.945-0.873,2.95-1.246c4.713,1.037,4.87,3.771,4.875,3.848  c-0.21,8.542,4.068,10.671,4.25,10.757c0.141,0.067,0.294,0.101,0.447,0.101c0.135,0,0.27-0.026,0.396-0.078  c0.271-0.111,0.484-0.332,0.584-0.608c2.075-5.691,8.027-7.699,8.087-7.718c0.417-0.136,0.705-0.52,0.72-0.958  c0.089-2.692,0.488-5.511,0.724-6.981c5.15,0.999,9.925,3.059,14.089,5.944c-0.298,1.454-1.322,5.118-4.326,6.665  c-0.251,0.129-0.438,0.354-0.521,0.624c-0.082,0.27-0.052,0.561,0.084,0.808c1.114,2.027,1.928,4.449,1.736,4.917  c-0.08,0.057-0.151,0.127-0.211,0.204c-0.021,0.026-2.074,2.62-5.335,3.552c-0.362,0.104-0.64,0.395-0.728,0.762  c-0.087,0.366,0.03,0.752,0.306,1.009c0.309,0.288,0.616,0.755,0.626,0.879c-0.003,0.003-0.28,0.33-1.699,0.446  c-0.438,0.036-0.806,0.341-0.922,0.764c-0.044,0.159-0.968,3.638,1.153,5.545c-0.746,3.454-2.715,11.021-4.84,13.396  c-0.26,0.29-0.337,0.699-0.2,1.063c0.095,0.25,2.346,5.956,11.348,4.964c0.748,2.919,2.852,12.615-0.431,18.186  C62.085,85.79,56.22,87.328,50,87.328C45.872,87.328,41.902,86.645,38.187,85.4z M70.282,81.312c0.355-1.164,0.581-2.392,0.71-3.637  l13.81-14.202C81.943,70.833,76.817,77.064,70.282,81.312z"
    ></path>
  </g>
</svg>
